<svg xmlns="http://www.w3.org/2000/svg" aria-hidden="true">
	<symbol id="checks-grid" viewBox="0 0 16 16">
		<rect x="1.5" y="1.5" width="5" height="5" rx="1.1" fill="none" stroke="currentColor" stroke-width="1.3"/>
		<rect x="9.5" y="1.5" width="5" height="5" rx="1.1" fill="none" stroke="currentColor" stroke-width="1.3"/>
		<rect x="1.5" y="9.5" width="5" height="5" rx="1.1" fill="none" stroke="currentColor" stroke-width="1.3"/>
		<rect x="9.5" y="9.5" width="5" height="5" rx="1.1" fill="none" stroke="currentColor" stroke-width="1.3"/>
		<path d="M3 3.6l.8.8 1.5-1.8" fill="none" stroke="currentColor" stroke-width="1.25" stroke-linecap="round" stroke-linejoin="round"/>
		<path d="M3 11.6l.8.8 1.5-1.8" fill="none" stroke="currentColor" stroke-width="1.25" stroke-linecap="round" stroke-linejoin="round"/>
	</symbol>
	<symbol id="search" viewBox="0 0 16 16">
		<circle cx="7" cy="7" r="4.75" fill="none" stroke="currentColor" stroke-width="1.5"/>
		<path d="M10.6 10.6 14 14" fill="none" stroke="currentColor" stroke-width="1.5" stroke-linecap="round"/>
	</symbol>
	<symbol id="journal-text" viewBox="0 0 16 16">
		<path d="M3 1.5h8.5A1.5 1.5 0 0 1 13 3v10a1.5 1.5 0 0 1-1.5 1.5H3A1.5 1.5 0 0 1 1.5 13V3A1.5 1.5 0 0 1 3 1.5Z" fill="none" stroke="currentColor" stroke-width="1.3"/>
		<path d="M4.2 4.2h5.7M4.2 6.9h5.7M4.2 9.6h4.6" fill="none" stroke="currentColor" stroke-width="1.3" stroke-linecap="round"/>
	</symbol>
	<symbol id="journal-richtext" viewBox="0 0 16 16">
		<path d="M3 1.5h8.5A1.5 1.5 0 0 1 13 3v10a1.5 1.5 0 0 1-1.5 1.5H3A1.5 1.5 0 0 1 1.5 13V3A1.5 1.5 0 0 1 3 1.5Z" fill="none" stroke="currentColor" stroke-width="1.3"/>
		<path d="M4.2 4.1h5.7M4.2 6.8h5.7M4.2 9.5h4.6" fill="none" stroke="currentColor" stroke-width="1.2" stroke-linecap="round"/>
		<path d="M10.9 3.3l.4.9.9.4-.9.4-.4.9-.4-.9-.9-.4.9-.4z" fill="currentColor"/>
	</symbol>
	<symbol id="magic" viewBox="0 0 16 16">
		<path d="M2.5 13.5 10.9 5.1" fill="none" stroke="currentColor" stroke-width="1.5" stroke-linecap="round"/>
		<path d="M9.6 3.2l.5 1 .9.5-.9.5-.5 1-.5-1-.9-.5.9-.5z" fill="currentColor"/>
		<path d="M11.8 1.8l.3.7.7.3-.7.3-.3.7-.3-.7-.7-.3.7-.3z" fill="currentColor"/>
	</symbol>
	<symbol id="github" viewBox="0 0 16 16">
		<path d="M5 4.5 2.5 8 5 11.5" fill="none" stroke="currentColor" stroke-width="1.5" stroke-linecap="round" stroke-linejoin="round"/>
		<path d="M11 4.5 13.5 8 11 11.5" fill="none" stroke="currentColor" stroke-width="1.5" stroke-linecap="round" stroke-linejoin="round"/>
		<path d="M8.8 3.7 7.2 12.3" fill="none" stroke="currentColor" stroke-width="1.5" stroke-linecap="round"/>
	</symbol>
	<symbol id="patch-question" viewBox="0 0 16 16">
		<path d="M8 1.6c1.2 0 2 .9 2.8 1.1.8.2 1.8-.2 2.6.6.8.8.4 1.8.6 2.6.2.8 1.1 1.6 1.1 2.8s-.9 2-1.1 2.8c-.2.8.2 1.8-.6 2.6-.8.8-1.8.4-2.6.6-.8.2-1.6 1.1-2.8 1.1s-2-.9-2.8-1.1c-.8-.2-1.8.2-2.6-.6-.8-.8-.4-1.8-.6-2.6C1.8 10.9.9 10.1.9 8.9s.9-2 1.1-2.8c.2-.8-.2-1.8.6-2.6.8-.8 1.8-.4 2.6-.6C6 2.5 6.8 1.6 8 1.6Z" fill="none" stroke="currentColor" stroke-width="1.2" stroke-linejoin="round"/>
		<path d="M6.2 6a1.9 1.9 0 1 1 2.6 1.8c-.7.3-1 .8-1 1.6v.4" fill="none" stroke="currentColor" stroke-width="1.3" stroke-linecap="round" stroke-linejoin="round"/>
		<circle cx="8" cy="11.7" r=".75" fill="currentColor"/>
	</symbol>
	<symbol id="chevron-down" viewBox="0 0 16 16">
		<path d="M4 6.2 8 10.2 12 6.2" fill="none" stroke="currentColor" stroke-width="1.6" stroke-linecap="round" stroke-linejoin="round"/>
	</symbol>
</svg>
